<?xml version="1.0" encoding="utf-8"?>
<svg id="master-artboard" viewBox="0 0 1006.524169921875 500.5399169921875" xmlns="http://www.w3.org/2000/svg" width="1006.524169921875px" height="500.5399169921875px" version="1.1" style="shape-rendering:geometricPrecision; text-rendering:geometricPrecision; image-rendering:optimizeQuality; fill-rule:evenodd; clip-rule:evenodd"><rect id="ee-background" x="0" y="0" width="1006.524169921875" height="500.5399169921875" style="fill: white; fill-opacity: 0; pointer-events: none;"/><path d="M 428.3090515136719 177.77999877929688 L 444.1290588378906 177.77999877929688 C 445.76239013671875 177.77999877929688 447.1290588378906 178.163330078125 448.22906494140625 178.92999267578125 C 449.3223876953125 179.70333862304688 450.05572509765625 180.7433319091797 450.4290466308594 182.0500030517578 L 467.6490478515625 242.60000610351562 C 468.0690612792969 244.0933380126953 468.4557189941406 245.7133331298828 468.8090515136719 247.45999145507812 C 469.1557312011719 249.2133331298828 469.4924011230469 251.07000732421875 469.8190612792969 253.02999877929688 C 470.1923828125 251.07000732421875 470.6023864746094 249.2133331298828 471.049072265625 247.45999145507812 C 471.4890441894531 245.7133331298828 471.9657287597656 244.0933380126953 472.47906494140625 242.60000610351562 L 492.35906982421875 182.0500030517578 C 492.7323913574219 180.97666931152344 493.46905517578125 179.99667358398438 494.5690612792969 179.11000061035156 C 495.6623840332031 178.22332763671875 497.00238037109375 177.77999877929688 498.58905029296875 177.77999877929688 L 504.1190490722656 177.77999877929688 C 505.75238037109375 177.77999877929688 507.105712890625 178.163330078125 508.1790466308594 178.92999267578125 C 509.25238037109375 179.70333862304688 509.9990539550781 180.7433319091797 510.4190673828125 182.0500030517578 L 530.1590576171875 242.60000610351562 C 531.1857299804688 245.586669921875 532.0723876953125 248.89999389648438 532.8190307617188 252.54000854492188 C 533.145751953125 250.72000122070312 533.4857177734375 248.97000122070312 533.8390502929688 247.29000854492188 C 534.1857299804688 245.61000061035156 534.5457153320312 244.04666137695312 534.9190673828125 242.60000610351562 L 552.1390380859375 182.0500030517578 C 552.4656982421875 180.88333129882812 553.1890869140625 179.8800048828125 554.30908203125 179.04000854492188 C 555.4290771484375 178.1999969482422 556.7824096679688 177.77999877929688 558.3690185546875 177.77999877929688 L 573.1390380859375 177.77999877929688 L 541.7090454101562 279 L 524.6990356445312 279 L 502.57904052734375 209.83999633789062 C 502.299072265625 208.95333862304688 502.0090637207031 207.99667358398438 501.70904541015625 206.97000122070312 C 501.40240478515625 205.94332885742188 501.10906982421875 204.84666442871094 500.82904052734375 203.67999267578125 C 500.549072265625 204.84666442871094 500.2590637207031 205.94332885742188 499.95904541015625 206.97000122070312 C 499.65240478515625 207.99667358398438 499.35906982421875 208.95333862304688 499.07904052734375 209.83999633789062 L 476.7490539550781 279 L 459.7390441894531 279 L 428.3090515136719 177.77999877929688 ZM 610.9940795898438 206.05999755859375 C 616.3607177734375 206.05999755859375 621.2274169921875 206.92333984375 625.5940551757812 208.64999389648438 C 629.9540405273438 210.3766632080078 633.674072265625 212.82666015625 636.7540283203125 216 C 639.8340454101562 219.17333984375 642.2140502929688 223.04666137695312 643.89404296875 227.6199951171875 C 645.5740356445312 232.19332885742188 646.4140625 237.30332946777344 646.4140625 242.9499969482422 C 646.4140625 248.64334106445312 645.5740356445312 253.77667236328125 643.89404296875 258.3500061035156 C 642.2140502929688 262.92333984375 639.8340454101562 266.82000732421875 636.7540283203125 270.0400085449219 C 633.674072265625 273.260009765625 629.9540405273438 275.73333740234375 625.5940551757812 277.4599914550781 C 621.2274169921875 279.1866760253906 616.3607177734375 280.04998779296875 610.9940795898438 280.04998779296875 C 605.6273803710938 280.04998779296875 600.750732421875 279.1866760253906 596.3640747070312 277.4599914550781 C 591.9774169921875 275.73333740234375 588.2340698242188 273.260009765625 585.134033203125 270.0400085449219 C 582.0274047851562 266.82000732421875 579.6240844726562 262.92333984375 577.924072265625 258.3500061035156 C 576.2174072265625 253.77667236328125 575.3640747070312 248.64334106445312 575.3640747070312 242.9499969482422 C 575.3640747070312 237.30332946777344 576.2174072265625 232.19332885742188 577.924072265625 227.6199951171875 C 579.6240844726562 223.04666137695312 582.0274047851562 219.17333984375 585.134033203125 216 C 588.2340698242188 212.82666015625 591.9774169921875 210.3766632080078 596.3640747070312 208.64999389648438 C 600.750732421875 206.92333984375 605.6273803710938 206.05999755859375 610.9940795898438 206.05999755859375 M 610.9940795898438 266.75 C 616.9674072265625 266.75 621.3907470703125 264.74334716796875 624.2640380859375 260.7300109863281 C 627.1307373046875 256.7166748046875 628.5640869140625 250.836669921875 628.5640869140625 243.08999633789062 C 628.5640869140625 235.3433380126953 627.1307373046875 229.44000244140625 624.2640380859375 225.3800048828125 C 621.3907470703125 221.32000732421875 616.9674072265625 219.29000854492188 610.9940795898438 219.29000854492188 C 604.9273681640625 219.29000854492188 600.4473876953125 221.3300018310547 597.5540771484375 225.41000366210938 C 594.6607055664062 229.49667358398438 593.2140502929688 235.38999938964844 593.2140502929688 243.08999633789062 C 593.2140502929688 250.79000854492188 594.6607055664062 256.65667724609375 597.5540771484375 260.69000244140625 C 600.4473876953125 264.7300109863281 604.9273681640625 266.75 610.9940795898438 266.75 ZM 659.9277954101562 279 L 659.9277954101562 207.17999267578125 L 670.0778198242188 207.17999267578125 C 671.8511352539062 207.17999267578125 673.0878295898438 207.5066680908203 673.7877807617188 208.16000366210938 C 674.48779296875 208.81332397460938 674.9544677734375 209.93333435058594 675.1878051757812 211.51998901367188 L 676.23779296875 220.1999969482422 C 678.804443359375 215.76666259765625 681.814453125 212.26666259765625 685.267822265625 209.6999969482422 C 688.7211303710938 207.13333129882812 692.594482421875 205.85000610351562 696.8878173828125 205.85000610351562 C 700.4344482421875 205.85000610351562 703.3744506835938 206.66665649414062 705.7078247070312 208.3000030517578 L 703.4677734375 221.25 C 703.3278198242188 222.08999633789062 703.0244750976562 222.68333435058594 702.5578002929688 223.02999877929688 C 702.0911254882812 223.38333129882812 701.4611206054688 223.55999755859375 700.6677856445312 223.55999755859375 C 699.9677734375 223.55999755859375 699.0111083984375 223.39666748046875 697.7977905273438 223.07000732421875 C 696.58447265625 222.7433319091797 694.9744873046875 222.5800018310547 692.9677734375 222.5800018310547 C 689.3744506835938 222.5800018310547 686.2944946289062 223.57000732421875 683.727783203125 225.5500030517578 C 681.1611328125 227.5366668701172 678.9911499023438 230.44332885742188 677.2178344726562 234.27000427246094 L 677.2178344726562 279 L 659.9277954101562 279 ZM 734.6152954101562 174.98001098632812 L 734.6152954101562 234.5500030517578 L 737.8353271484375 234.5500030517578 C 739.001953125 234.5500030517578 739.9119873046875 234.38665771484375 740.5653076171875 234.05999755859375 C 741.2186279296875 233.73333740234375 741.9186401367188 233.1266632080078 742.665283203125 232.24000549316406 L 760.5153198242188 210.19000244140625 C 761.3086547851562 209.2566680908203 762.1486206054688 208.51998901367188 763.0352783203125 207.98001098632812 C 763.9219970703125 207.4466552734375 765.088623046875 207.17999267578125 766.5352783203125 207.17999267578125 L 782.3552856445312 207.17999267578125 L 760.0253295898438 233.85000610351562 C 759.2319946289062 234.8300018310547 758.415283203125 235.72666931152344 757.5753173828125 236.54000854492188 C 756.7352905273438 237.36000061035156 755.8253173828125 238.07333374023438 754.8453369140625 238.67999267578125 C 755.8253173828125 239.3800048828125 756.6886596679688 240.19667053222656 757.435302734375 241.1300048828125 C 758.1819458007812 242.06332397460938 758.9286499023438 243.06666564941406 759.67529296875 244.13999938964844 L 783.6152954101562 279 L 768.0053100585938 279 C 766.6519775390625 279 765.5086669921875 278.76666259765625 764.5753173828125 278.29998779296875 C 763.6419677734375 277.8333435058594 762.802001953125 277.0400085449219 762.0552978515625 275.9200134277344 L 743.7852783203125 248.69000244140625 C 743.0853271484375 247.61666870117188 742.3853149414062 246.9166717529297 741.685302734375 246.58999633789062 C 740.9852905273438 246.26333618164062 739.935302734375 246.10000610351562 738.5352783203125 246.10000610351562 L 734.6152954101562 246.10000610351562 L 734.6152954101562 279 L 717.3253173828125 279 L 717.3253173828125 174.98001098632812 L 734.6152954101562 174.98001098632812 Z" transform="matrix(1.665614128112793, 0, 0, 1.665614128112793, -704.4951782226562, -241.72323608398438)" style="fill: rgb(51, 51, 51); white-space: pre; color: rgb(51, 51, 51);"/><path d="M 447.5590515136719 177.77999877929688 C 448.3990478515625 177.77999877929688 449.09906005859375 177.81332397460938 449.6590576171875 177.8800048828125 C 450.21905517578125 177.95333862304688 450.7223815917969 178.09332275390625 451.1690673828125 178.3000030517578 C 451.60906982421875 178.51333618164062 452.0390625 178.81666564941406 452.45904541015625 179.20999145507812 C 452.8790588378906 179.61000061035156 453.3457336425781 180.13665771484375 453.85906982421875 180.79000854492188 L 506.9890441894531 248.47999572753906 C 506.8023986816406 246.84666442871094 506.67572021484375 245.24667358398438 506.60906982421875 243.67999267578125 C 506.53570556640625 242.1199951171875 506.4990539550781 240.663330078125 506.4990539550781 239.30999755859375 L 506.4990539550781 177.77999877929688 L 523.0890502929688 177.77999877929688 L 523.0890502929688 279 L 513.3590698242188 279 C 511.86572265625 279 510.6290588378906 278.76666259765625 509.6490478515625 278.29998779296875 C 508.6690673828125 277.8333435058594 507.71240234375 276.99334716796875 506.779052734375 275.7799987792969 L 453.85906982421875 208.3699951171875 C 453.9990539550781 209.86334228515625 454.105712890625 211.34332275390625 454.1790466308594 212.80999755859375 C 454.2457275390625 214.2833251953125 454.279052734375 215.6266632080078 454.279052734375 216.83999633789062 L 454.279052734375 279 L 437.6890563964844 279 L 437.6890563964844 177.77999877929688 L 447.5590515136719 177.77999877929688 L 447.5590515136719 177.77999877929688 ZM 572.2171630859375 206.05999755859375 C 576.7438354492188 206.05999755859375 580.9105224609375 206.7833251953125 584.7171630859375 208.23001098632812 C 588.5172119140625 209.67666625976562 591.7938232421875 211.7866668701172 594.5471801757812 214.55999755859375 C 597.300537109375 217.33999633789062 599.4472045898438 220.74667358398438 600.9871826171875 224.77999877929688 C 602.5271606445312 228.82000732421875 603.2971801757812 233.42999267578125 603.2971801757812 238.61000061035156 C 603.2971801757812 239.9166717529297 603.2405395507812 241 603.127197265625 241.86000061035156 C 603.0072021484375 242.72666931152344 602.7971801757812 243.40333557128906 602.4971923828125 243.88999938964844 C 602.1904907226562 244.38333129882812 601.780517578125 244.73666381835938 601.2672119140625 244.9499969482422 C 600.7538452148438 245.1566619873047 600.1005249023438 245.25999450683594 599.3071899414062 245.25999450683594 L 554.9271850585938 245.25999450683594 C 555.4404907226562 252.63333129882812 557.423828125 258.0466613769531 560.877197265625 261.5 C 564.3305053710938 264.9533386230469 568.9038696289062 266.67999267578125 574.59716796875 266.67999267578125 C 577.3971557617188 266.67999267578125 579.8138427734375 266.35333251953125 581.84716796875 265.70001220703125 C 583.8738403320312 265.0466613769531 585.6471557617188 264.3233337402344 587.1671752929688 263.5299987792969 C 588.6805419921875 262.7366638183594 590.010498046875 262.0133361816406 591.1571655273438 261.3599853515625 C 592.2971801757812 260.7066650390625 593.4038696289062 260.3800048828125 594.4771728515625 260.3800048828125 C 595.1771850585938 260.3800048828125 595.7838745117188 260.5199890136719 596.2971801757812 260.79998779296875 C 596.8104858398438 261.0799865722656 597.2538452148438 261.4766540527344 597.627197265625 261.989990234375 L 602.6671752929688 268.2900085449219 C 600.7538452148438 270.5299987792969 598.607177734375 272.40667724609375 596.2271728515625 273.9200134277344 C 593.84716796875 275.44000244140625 591.3638305664062 276.6533203125 588.7771606445312 277.55999755859375 C 586.183837890625 278.47332763671875 583.5471801757812 279.1166687011719 580.8671875 279.489990234375 C 578.1805419921875 279.86334228515625 575.5771484375 280.04998779296875 573.0571899414062 280.04998779296875 C 568.0638427734375 280.04998779296875 563.4205322265625 279.2200012207031 559.127197265625 277.55999755859375 C 554.8338623046875 275.90667724609375 551.1005249023438 273.4566650390625 547.9271850585938 270.2099914550781 C 544.7538452148438 266.9700012207031 542.2572021484375 262.9566650390625 540.4371948242188 258.1700134277344 C 538.6171875 253.38999938964844 537.7071533203125 247.85000610351562 537.7071533203125 241.5500030517578 C 537.7071533203125 236.64999389648438 538.50048828125 232.04000854492188 540.087158203125 227.72000122070312 C 541.673828125 223.4066619873047 543.9505004882812 219.64999389648438 546.9171752929688 216.4499969482422 C 549.877197265625 213.2566680908203 553.4938354492188 210.72666931152344 557.7671508789062 208.86000061035156 C 562.0338745117188 206.9933319091797 566.8505249023438 206.05999755859375 572.2171630859375 206.05999755859375 M 572.5671997070312 218.4499969482422 C 567.5271606445312 218.4499969482422 563.5838623046875 219.8733367919922 560.7371826171875 222.72000122070312 C 557.8905029296875 225.56666564941406 556.0704956054688 229.60333251953125 555.2771606445312 234.8300018310547 L 587.7572021484375 234.8300018310547 C 587.7572021484375 232.58999633789062 587.453857421875 230.47666931152344 586.84716796875 228.49000549316406 C 586.2405395507812 226.50999450683594 585.3071899414062 224.77333068847656 584.0471801757812 223.27999877929688 C 582.7871704101562 221.7866668701172 581.2005004882812 220.60665893554688 579.2871704101562 219.74000549316406 C 577.3738403320312 218.8800048828125 575.1338500976562 218.4499969482422 572.5671997070312 218.4499969482422 ZM 640.955322265625 280.1199951171875 C 634.7486572265625 280.1199951171875 629.96533203125 278.3566589355469 626.6052856445312 274.8299865722656 C 623.2453002929688 271.30999755859375 621.5653076171875 266.4466552734375 621.5653076171875 260.239990234375 L 621.5653076171875 220.1300048828125 L 614.2852783203125 220.1300048828125 C 613.3519897460938 220.1300048828125 612.5486450195312 219.82666015625 611.8753051757812 219.22000122070312 C 611.1953125 218.61334228515625 610.8552856445312 217.70333862304688 610.8552856445312 216.49000549316406 L 610.8552856445312 209.6300048828125 L 622.4053344726562 207.739990234375 L 626.0452880859375 188.13999938964844 C 626.2319946289062 187.2066650390625 626.665283203125 186.48333740234375 627.3452758789062 185.97000122070312 C 628.0186157226562 185.4566650390625 628.86865234375 185.1999969482422 629.8953247070312 185.1999969482422 L 638.8552856445312 185.1999969482422 L 638.8552856445312 207.80999755859375 L 657.7553100585938 207.80999755859375 L 657.7553100585938 220.1300048828125 L 638.8552856445312 220.1300048828125 L 638.8552856445312 259.04998779296875 C 638.8552856445312 261.2900085449219 639.415283203125 263.0400085449219 640.5352783203125 264.29998779296875 C 641.6552734375 265.55999755859375 643.1486206054688 266.19000244140625 645.0153198242188 266.19000244140625 C 646.088623046875 266.19000244140625 646.9886474609375 266.05999755859375 647.71533203125 265.79998779296875 C 648.435302734375 265.5466613769531 649.0653076171875 265.2799987792969 649.6052856445312 265 C 650.1386108398438 264.7200012207031 650.6152954101562 264.45001220703125 651.0352783203125 264.19000244140625 C 651.455322265625 263.9366760253906 651.8753051757812 263.80999755859375 652.2952880859375 263.80999755859375 C 652.8086547851562 263.80999755859375 653.2286376953125 263.9366760253906 653.5552978515625 264.19000244140625 C 653.8819580078125 264.45001220703125 654.2319946289062 264.836669921875 654.6052856445312 265.3500061035156 L 659.7852783203125 273.75 C 657.2653198242188 275.8500061035156 654.3719482421875 277.4366760253906 651.1052856445312 278.510009765625 C 647.838623046875 279.5833435058594 644.455322265625 280.1199951171875 640.955322265625 280.1199951171875 Z" transform="matrix(1.6656142473220825, 0, 0, 1.6656142473220825, -113.75981140136719, -241.04501342773438)" style="fill: rgb(51, 74, 145); white-space: pre; color: rgb(51, 51, 51);"/></svg>